<svg xmlns="http://www.w3.org/2000/svg" xmlns:xlink="http://www.w3.org/1999/xlink" width="526.1" height="200" viewBox="0 0 526.1 200" preserveAspectRatio="xMidYMid meet"><defs><linearGradient id="a" x1="52.5" y1="199.9" x2="52.5" y2="100" gradientUnits="userSpaceOnUse"><stop offset="0" stop-color="#fa9c01"/><stop offset="1" stop-color="#fdde43"/></linearGradient><linearGradient id="b" x1="157.6" y1="200" x2="157.6" y2="100" xlink:href="#a"/><linearGradient id="c" x1="263.05" y1="200" x2="263.05" y2="100" xlink:href="#a"/><linearGradient id="d" x1="368.3" y1="200" x2="368.3" y2="100" xlink:href="#a"/><linearGradient id="e" x1="473.55" y1="200" x2="473.55" y2="100" xlink:href="#a"/></defs><title>five-stars_sprite</title><path d="M52.5,100l12.4,38.2H105L72.6,161.8,85,199.9,52.5,176.3,20.1,199.9l12.4-38.2L0,138.2H40.1Z" fill="url(#a)"/><path d="M157.7,100l12.4,38.2h40.1l-32.5,23.6L190.1,200l-32.5-23.6L125.1,200l12.4-38.2L105,138.2h40.1Z" fill="url(#b)"/><path d="M263.1,100l12.4,38.2h40.1l-32.5,23.6L295.5,200l-32.4-23.7-32.5,23.6L243,161.7l-32.5-23.6h40.1Z" fill="url(#c)"/><path d="M368.4,100l12.4,38.2h40.1l-32.5,23.6L400.8,200l-32.5-23.6L335.8,200l12.4-38.2-32.5-23.6h40.1Z" fill="url(#d)"/><path d="M473.6,100,486,138.2h40.1l-32.5,23.6L506,200l-32.5-23.6-32.4,23.5,12.4-38.2L421,138.1h40.1Z" fill="url(#e)"/><polygon points="52.5 74.45 22.95 95.97 34.26 61.12 4.63 39.7 41.19 39.7 52.5 4.86 63.81 39.7 100.39 39.7 70.84 61.23 82.14 95.97 52.5 74.45" fill="#f5f3f4"/><path d="M52.5,9.72l9.55,29.41.67,2.07H95.79l-25,18.18-1.76,1.28.68,2.07,9.54,29.32-25-18.18L52.5,72.59l-1.77,1.29L25.81,92l9.54-29.4L36,60.55l-1.77-1.28L9.27,41.2h33L43,39.13,52.5,9.72M52.5,0,40.1,38.2H0L32.5,61.7,20.1,99.9,52.5,76.3,85,99.9,72.6,61.8,105,38.2H64.9L52.5,0Z" fill="#d5d4d4"/><polygon points="157.6 74.55 127.95 96.08 139.26 61.23 109.62 39.7 146.19 39.7 157.69 4.82 169.01 39.7 205.58 39.7 175.94 61.23 187.25 96.08 157.6 74.55" fill="#f5f3f4"/><path d="M157.68,9.65l9.57,29.48.67,2.07h33l-25,18.17-1.77,1.28.68,2.08,9.55,29.42L159.36,74l-1.76-1.28L155.84,74l-25,18.18,9.55-29.42.68-2.08-1.77-1.28-25-18.17h33l.68-2.06,9.73-29.49m0-9.65L145.1,38.2H105l32.5,23.6L125.1,100l32.5-23.6L190.1,100,177.7,61.8l32.5-23.6H170.1L157.7,0Z" fill="#d5d4d4"/><polygon points="263.1 74.44 233.45 95.98 244.76 61.13 215.12 39.6 251.69 39.6 263.09 4.83 274.41 39.7 310.98 39.7 281.34 61.23 292.64 96.05 263.1 74.44" fill="#f5f3f4"/><path d="M263.08,9.67l9.57,29.46.67,2.07h33l-25,18.17-1.77,1.28.68,2.08,9.53,29.37L264.87,73.88l-1.76-1.29-1.77,1.28-25,18.18,9.55-29.42.68-2.08-1.77-1.28-25-18.17h33l.68-2.06,9.63-29.37m0-9.67L250.6,38.1H210.5L243,61.7,230.6,99.9l32.5-23.6L295.5,100,283.1,61.8l32.5-23.6H275.5L263.1,0Z" fill="#d5d4d4"/><polygon points="368.3 74.55 338.65 96.08 349.96 61.23 320.32 39.7 356.88 39.7 368.39 4.82 379.71 39.7 416.28 39.7 386.64 61.23 397.95 96.08 368.3 74.55" fill="#f5f3f4"/><path d="M368.38,9.65,378,39.13l.67,2.07h33l-25,18.17-1.77,1.28.68,2.08,9.55,29.42L370.06,74l-1.76-1.28L366.54,74l-25,18.18,9.55-29.42.68-2.08L350,59.37l-25-18.17h33l.68-2.06,9.73-29.49m0-9.65L355.8,38.2H315.7l32.5,23.6L335.8,100l32.5-23.6L400.8,100,388.4,61.8l32.5-23.6H380.8L368.4,0Z" fill="#d5d4d4"/><polygon points="473.5 74.55 443.95 95.98 455.26 61.13 425.62 39.6 462.19 39.6 473.59 4.83 484.91 39.7 521.48 39.7 491.84 61.23 503.15 96.08 473.5 74.55" fill="#f5f3f4"/><path d="M473.58,9.67l9.57,29.46.67,2.07h33l-25,18.17-1.77,1.28.68,2.08,9.55,29.42L475.26,74l-1.76-1.28L471.74,74,446.8,92.06l9.55-29.43.68-2.08-1.77-1.28-25-18.17h33L464,39l9.63-29.37m0-9.67L461.1,38.1H421l32.5,23.6L441.1,99.9l32.4-23.5L506,100,493.6,61.8l32.5-23.6H486L473.6,0Z" fill="#d5d4d4"/></svg>