<svg xmlns="http://www.w3.org/2000/svg" width="526.1" height="100" viewBox="0 0 526.1 100" preserveAspectRatio="xMidYMid meet"><title>five-stars_empty</title><polygon points="52.5 75.68 21.05 98.59 33.09 61.51 1.54 38.7 40.46 38.7 52.5 1.62 64.54 38.7 103.46 38.7 72.01 61.61 84.05 98.59 52.5 75.68" fill="#f5f3f4"/><path d="M52.5,3.24,64,38.51l.22.69h37.76L72,61l-.59.43.23.69L83.1,97.28l-30-21.79-.59-.43-.59.43L22,97.28,33.45,62l.23-.69-.59-.43L3.09,39.2H40.83l.22-.69L52.5,3.24M52.5,0,40.1,38.2H0L32.5,61.7,20.1,99.9,52.5,76.3,85,99.9,72.6,61.8,105,38.2H64.9L52.5,0Z" fill="#d5d4d4"/><polygon points="157.6 75.78 126.05 98.69 138.09 61.61 106.54 38.7 145.46 38.7 157.7 1.61 169.74 38.7 208.66 38.7 177.11 61.61 189.15 98.69 157.6 75.78" fill="#f5f3f4"/><path d="M157.69,3.22l11.46,35.29.22.69h37.75L177.11,61l-.59.43.23.69L188.2,97.38l-30-21.79-.59-.43-.59.43L127,97.38l11.45-35.27.23-.69-.59-.43-30-21.79h37.74l.23-.69L157.69,3.22m0-3.22L145.1,38.2H105l32.5,23.6L125.1,100l32.5-23.6L190.1,100,177.7,61.8l32.5-23.6H170.1L157.7,0Z" fill="#d5d4d4"/><polygon points="263.1 75.68 231.55 98.59 243.59 61.51 212.04 38.6 250.96 38.6 263.1 1.61 275.14 38.7 314.06 38.7 282.51 61.61 294.55 98.68 263.1 75.68" fill="#f5f3f4"/><path d="M263.09,3.22l11.46,35.29.22.69h37.75L282.51,61l-.59.43.23.69,11.44,35.26-29.9-21.88-.59-.43-.59.43-30,21.79L244,62l.23-.69-.59-.43-30-21.79h37.74l.23-.69L263.09,3.22m0-3.22L250.6,38.1H210.5L243,61.7,230.6,99.9l32.5-23.6L295.5,100,283.1,61.8l32.5-23.6H275.5L263.1,0Z" fill="#d5d4d4"/><polygon points="368.3 75.78 336.75 98.69 348.79 61.61 317.24 38.7 356.16 38.7 368.4 1.61 380.44 38.7 419.36 38.7 387.81 61.61 399.85 98.69 368.3 75.78" fill="#f5f3f4"/><path d="M368.39,3.22l11.46,35.29.22.69h37.75L387.81,61l-.59.43.23.69L398.9,97.38l-30-21.79-.59-.43-.59.43-30,21.79,11.45-35.27.23-.69-.59-.43-30-21.79h37.74l.23-.69L368.39,3.22m0-3.22L355.8,38.2H315.7l32.5,23.6L335.8,100l32.5-23.6L400.8,100,388.4,61.8l32.5-23.6H380.8L368.4,0Z" fill="#d5d4d4"/><polygon points="473.5 75.78 442.05 98.59 454.09 61.51 422.54 38.6 461.46 38.6 473.6 1.61 485.64 38.7 524.56 38.7 493.01 61.61 505.05 98.69 473.5 75.78" fill="#f5f3f4"/><path d="M473.59,3.22l11.46,35.29.22.69H523L493,61l-.59.43.23.69L504.1,97.38l-30-21.79-.59-.43-.59.43L443,97.29,454.45,62l.23-.69-.59-.43-30-21.79h37.74l.23-.69L473.59,3.22m0-3.22L461.1,38.1H421l32.5,23.6L441.1,99.9l32.4-23.5L506,100,493.6,61.8l32.5-23.6H486L473.6,0Z" fill="#d5d4d4"/></svg>