<svg xmlns="http://www.w3.org/2000/svg" width="526.1" height="100" viewBox="0 0 526.1 100" preserveAspectRatio="xMidYMid meet"><title>five-stars_red</title><path d="M52.5,0,64.9,38.2H105L72.6,61.8,85,99.9,52.5,76.3,20.1,99.9,32.5,61.7,0,38.2H40.1Z" fill="#9d2235"/><path d="M157.7,0l12.4,38.2h40.1L177.7,61.8,190.1,100,157.6,76.4,125.1,100l12.4-38.2L105,38.2h40.1Z" fill="#9d2235"/><path d="M263.1,0l12.4,38.2h40.1L283.1,61.8,295.5,100,263.1,76.3,230.6,99.9,243,61.7,210.5,38.1h40.1Z" fill="#9d2235"/><path d="M368.4,0l12.4,38.2h40.1L388.4,61.8,400.8,100,368.3,76.4,335.8,100l12.4-38.2L315.7,38.2h40.1Z" fill="#9d2235"/><path d="M473.6,0,486,38.2h40.1L493.6,61.8,506,100,473.5,76.4,441.1,99.9l12.4-38.2L421,38.1h40.1Z" fill="#9d2235"/></svg>