<svg xmlns="http://www.w3.org/2000/svg" width="768" height="1024" viewBox="0 0 768 1024"><title>No Image Available</title><rect width="768" height="1024" fill="#dcdadb"/><path d="M211.9,475.15H197.8l-31.08-64.94q.66,7.67,1.05,14.15t.39,15.71v35.08h-9.88V398.67h13.77l31.41,65q-.33-2.88-.89-10.1T202,440.4V398.67h9.88Z" fill="#5d5b5c"/><path d="M274.67,423.53q6.82,8.22,6.82,22.31a38.9,38.9,0,0,1-3.11,16,24.33,24.33,0,0,1-9,10.77,25.07,25.07,0,0,1-14,3.83q-12.33,0-19.21-8.22T229.32,446a39,39,0,0,1,3.11-16,24.36,24.36,0,0,1,9-10.76,25.21,25.21,0,0,1,14.1-3.83Q267.84,415.32,274.67,423.53ZM240.31,446q0,22.32,15.1,22.31t15.09-22.42q0-22.3-15-22.31Q240.31,423.53,240.31,446Z" fill="#5d5b5c"/><path d="M338.88,398.67v76.48H328.33V398.67Z" fill="#5d5b5c"/><path d="M430.79,420.15q4.32,4.82,4.33,13v42H424.9V434.63q0-11.33-8.21-11.32a11,11,0,0,0-7.33,2.5,34.93,34.93,0,0,0-6.43,7.82v41.52H392.71V434.63q0-11.33-8.21-11.32a11.09,11.09,0,0,0-7.44,2.55,34.83,34.83,0,0,0-6.32,7.77v41.52H360.52v-58.5h8.77l.89,8.55q6.56-9.88,16.87-9.88a14.71,14.71,0,0,1,14.77,10.54,27.35,27.35,0,0,1,7.6-7.82,17.48,17.48,0,0,1,9.82-2.72A14.76,14.76,0,0,1,430.79,420.15Z" fill="#5d5b5c"/><path d="M496.28,466.77a7.43,7.43,0,0,0,3.66,2.6l-2.33,7.11a15.52,15.52,0,0,1-7.33-2.56,11.68,11.68,0,0,1-4.11-6.21q-5.88,8.78-17.42,8.77-8.65,0-13.66-4.89t-5-12.76q0-9.33,6.72-14.32t19-5h9v-4.33q0-6.22-3-8.88t-9.22-2.67q-6.44,0-15.76,3.11l-2.55-7.44a58.91,58.91,0,0,1,20.2-4q10.32,0,15.43,5.05t5.1,14.37v26.75A9.14,9.14,0,0,0,496.28,466.77Zm-11.44-7V446.29h-7.66q-16.2,0-16.2,12,0,5.22,2.55,7.88t7.55,2.67Q479.84,468.82,484.84,459.72Z" fill="#5d5b5c"/><path d="M562.1,419.31a31.74,31.74,0,0,1-7.33,1.45q-4,.33-9.77.33,10.34,4.67,10.33,14.76a18.62,18.62,0,0,1-6,14.32q-6,5.55-16.31,5.55a24.07,24.07,0,0,1-7.44-1.11,6.28,6.28,0,0,0-2.11,2.39,6.52,6.52,0,0,0-.78,3.05q0,4.77,7.66,4.77h9.33a24.62,24.62,0,0,1,10.43,2.11,17,17,0,0,1,7,5.77,14.5,14.5,0,0,1,2.5,8.33,14.81,14.81,0,0,1-7,13.15q-7,4.6-20.42,4.61-9.43,0-14.93-1.94T509.48,491a19.23,19.23,0,0,1-2.33-10h9.22a10.18,10.18,0,0,0,1.33,5.6,8.31,8.31,0,0,0,4.77,3.11,34.7,34.7,0,0,0,9.77,1.06q9.21,0,13.15-2.28a7.39,7.39,0,0,0,3.94-6.82,7,7,0,0,0-3.11-6.22q-3.11-2.12-8.65-2.11h-9.22q-7.43,0-11.26-3.16a9.87,9.87,0,0,1-3.83-7.94,10.34,10.34,0,0,1,1.66-5.55A16.08,16.08,0,0,1,519.7,452a18.38,18.38,0,0,1-7.5-6.61,18.18,18.18,0,0,1-2.38-9.6,19.32,19.32,0,0,1,2.94-10.54,20,20,0,0,1,8.1-7.27,25.09,25.09,0,0,1,11.49-2.61,82.62,82.62,0,0,0,11.54-.5,39.79,39.79,0,0,0,7.72-1.67q3-1,7.49-3Zm-38.69,6.94a13.93,13.93,0,0,0-3.16,9.49q0,6,3.22,9.6t9.1,3.61q6,0,9.16-3.5t3.16-9.82q0-13-12.54-13Q526.58,422.64,523.41,426.25Z" fill="#5d5b5c"/><path d="M614.82,449.39H577.53q.66,9.66,4.88,14.21a14.14,14.14,0,0,0,10.88,4.55,23.62,23.62,0,0,0,7.77-1.22,31.54,31.54,0,0,0,7.44-3.88l4.44,6.1a32.33,32.33,0,0,1-20.43,7.33q-12.21,0-19-8t-6.82-22a41.65,41.65,0,0,1,2.94-16.15A25.33,25.33,0,0,1,578,419.31a21.4,21.4,0,0,1,12.93-4q11.65,0,17.87,7.66t6.21,21.2C615,445.88,615,447.62,614.82,449.39Zm-9.88-8.21q0-8.65-3.44-13.21t-10.32-4.55q-12.54,0-13.65,18.43h27.41Z" fill="#5d5b5c"/><path d="M206.4,608.35l-5.77-19.21h-29l-5.77,19.21H155.23l24.53-76.48h13.32l24.42,76.48ZM174.21,580.6h23.87l-11.88-40Z" fill="#5d5b5c"/><path d="M271.67,549.85l-19.87,58.5H239.48l-20.2-58.5h11.1l15.31,49.39,15.21-49.39Z" fill="#5d5b5c"/><path d="M322.17,600a7.52,7.52,0,0,0,3.66,2.6l-2.33,7.11a15.52,15.52,0,0,1-7.32-2.56,11.68,11.68,0,0,1-4.11-6.21q-5.88,8.77-17.43,8.77-8.65,0-13.65-4.89T276,592q0-9.33,6.71-14.32t19-5h9v-4.32q0-6.23-3-8.88t-9.21-2.67q-6.43,0-15.76,3.11l-2.56-7.44a59,59,0,0,1,20.21-4q10.32,0,15.42,5.05T321,567.94v26.75A9.23,9.23,0,0,0,322.17,600Zm-11.43-7.05V579.49h-7.66q-16.21,0-16.21,12,0,5.22,2.56,7.89T297,602Q305.75,602,310.74,592.92Z" fill="#5d5b5c"/><path d="M352.14,523.76a6.81,6.81,0,0,1,2,5,6.61,6.61,0,0,1-2,4.94,7.18,7.18,0,0,1-5.22,1.94,7,7,0,0,1-5.1-1.94,6.61,6.61,0,0,1-2-4.94,6.81,6.81,0,0,1,2-5,6.9,6.9,0,0,1,5.1-2A7.06,7.06,0,0,1,352.14,523.76Zm0,26.09v58.5H341.93v-58.5Z" fill="#5d5b5c"/><path d="M376,606.29q-3.27-3.37-3.27-9.49V526.32l10.21-1.22v71.48a6,6,0,0,0,.83,3.55,3.32,3.32,0,0,0,2.83,1.11,10.14,10.14,0,0,0,3.77-.66l2.67,7.1a16.68,16.68,0,0,1-8.1,2Q379.22,609.68,376,606.29Z" fill="#5d5b5c"/><path d="M445.83,600a7.43,7.43,0,0,0,3.66,2.6l-2.33,7.11a15.52,15.52,0,0,1-7.33-2.56,11.68,11.68,0,0,1-4.11-6.21q-5.88,8.77-17.42,8.77-8.66,0-13.66-4.89t-5-12.76q0-9.33,6.72-14.32t19-5h9v-4.32q0-6.23-3-8.88t-9.22-2.67q-6.44,0-15.76,3.11l-2.55-7.44a58.91,58.91,0,0,1,20.2-4q10.32,0,15.43,5.05t5.1,14.37v26.75A9.14,9.14,0,0,0,445.83,600Zm-11.44-7.05V579.49h-7.66q-16.2,0-16.2,12,0,5.22,2.55,7.89t7.55,2.66Q429.39,602,434.39,592.92Z" fill="#5d5b5c"/><path d="M508.21,556.56q5.88,8.06,5.88,22.48a42.94,42.94,0,0,1-2.78,16,24,24,0,0,1-8,10.77,20.1,20.1,0,0,1-12.21,3.83q-9.21,0-15.54-7.77l-1,6.44h-9v-82l10.21-1.22v32.08q6.33-8.67,16.54-8.66A18.68,18.68,0,0,1,508.21,556.56Zm-8.94,39.52q3.83-5.49,3.83-17,0-11.88-3.55-17.15a11.48,11.48,0,0,0-10.1-5.27q-7.77,0-13.66,9.1v28a18.16,18.16,0,0,0,5.72,5.78,13.38,13.38,0,0,0,7.16,2.11A12.23,12.23,0,0,0,499.27,596.08Z" fill="#5d5b5c"/><path d="M534.24,606.29Q531,602.92,531,596.8V526.32l10.21-1.22v71.48a6,6,0,0,0,.83,3.55,3.33,3.33,0,0,0,2.84,1.11,10.17,10.17,0,0,0,3.77-.66l2.66,7.1a16.65,16.65,0,0,1-8.1,2Q537.52,609.68,534.24,606.29Z" fill="#5d5b5c"/><path d="M607.44,582.59h-37.3q.68,9.66,4.89,14.21a14.14,14.14,0,0,0,10.88,4.55,23.62,23.62,0,0,0,7.77-1.22,31.49,31.49,0,0,0,7.43-3.88l4.44,6.1a32.28,32.28,0,0,1-20.42,7.33q-12.21,0-19-8t-6.82-22a41.65,41.65,0,0,1,2.94-16.15,25.39,25.39,0,0,1,8.43-11,21.45,21.45,0,0,1,12.94-4q11.65,0,17.87,7.66t6.21,21.2C607.66,579.08,607.59,580.82,607.44,582.59Zm-9.88-8.21q0-8.65-3.44-13.21c-2.29-3-5.74-4.55-10.32-4.55q-12.56,0-13.66,18.43h27.42Z" fill="#5d5b5c"/></svg>