<svg xmlns="http://www.w3.org/2000/svg" width="576" height="1024" viewBox="0 0 576 1024"><title>No Image Available</title><rect width="576" height="1024" fill="#dcdadb"/><path d="M158.91,484.36H148.34L125,435.65c.34,3.83.6,7.37.8,10.62s.29,7.17.29,11.78v26.31H118.7V427H129l23.56,48.79c-.16-1.44-.39-4-.66-7.57s-.42-6.92-.42-9.91V427h7.41Z" fill="#5d5b5c"/><path d="M206,445.64q5.13,6.17,5.12,16.74a29.08,29.08,0,0,1-2.33,12,18.21,18.21,0,0,1-6.74,8.07,18.76,18.76,0,0,1-10.49,2.88q-9.24,0-14.41-6.16T172,462.46a29.24,29.24,0,0,1,2.33-12,18.38,18.38,0,0,1,6.75-8.08,19,19,0,0,1,10.57-2.87Q200.87,439.48,206,445.64Zm-25.76,16.82q0,16.74,11.32,16.74t11.32-16.82q0-16.74-11.24-16.74Q180.23,445.64,180.23,462.46Z" fill="#5d5b5c"/><path d="M254.16,427v57.37h-7.91V427Z" fill="#5d5b5c"/><path d="M323.09,443.1q3.26,3.63,3.25,9.79v31.47h-7.66V454q0-8.49-6.16-8.49a8.27,8.27,0,0,0-5.49,1.87,26.05,26.05,0,0,0-4.83,5.87v31.14h-7.66V454q0-8.49-6.16-8.49a8.34,8.34,0,0,0-5.58,1.91,26.41,26.41,0,0,0-4.75,5.83v31.14h-7.66V440.48H277l.67,6.41q4.91-7.41,12.65-7.41a11.56,11.56,0,0,1,6.95,2.08,11.38,11.38,0,0,1,4.12,5.83,20.69,20.69,0,0,1,5.71-5.87,13.17,13.17,0,0,1,7.37-2A11.06,11.06,0,0,1,323.09,443.1Z" fill="#5d5b5c"/><path d="M372.22,478.07a5.61,5.61,0,0,0,2.74,2l-1.74,5.33a11.74,11.74,0,0,1-5.5-1.92,8.76,8.76,0,0,1-3.08-4.66q-4.41,6.57-13.07,6.58-6.49,0-10.24-3.67a12.77,12.77,0,0,1-3.75-9.57q0-7,5-10.74t14.28-3.75h6.74v-3.25q0-4.65-2.25-6.66t-6.91-2a38.44,38.44,0,0,0-11.82,2.33l-1.91-5.58a44.08,44.08,0,0,1,15.15-3q7.74,0,11.57,3.79t3.83,10.78v20.07A6.87,6.87,0,0,0,372.22,478.07Zm-8.58-5.29V462.71H357.9q-12.16,0-12.16,9,0,3.92,1.92,5.91a7.44,7.44,0,0,0,5.66,2Q359.89,479.61,363.64,472.78Z" fill="#5d5b5c"/><path d="M421.59,442.48a24,24,0,0,1-5.5,1.08q-3,.26-7.32.25,7.74,3.49,7.74,11.07a14,14,0,0,1-4.5,10.74q-4.49,4.17-12.24,4.17a18.21,18.21,0,0,1-5.57-.83,4.68,4.68,0,0,0-1.59,1.79A5,5,0,0,0,392,473q0,3.59,5.75,3.58h7a18.37,18.37,0,0,1,7.83,1.59,12.58,12.58,0,0,1,5.28,4.33,10.81,10.81,0,0,1,1.88,6.24,11.14,11.14,0,0,1-5.25,9.87q-5.25,3.45-15.32,3.45a34.68,34.68,0,0,1-11.2-1.46,10.63,10.63,0,0,1-5.87-4.37,14.44,14.44,0,0,1-1.74-7.49h6.91a7.59,7.59,0,0,0,1,4.2,6.19,6.19,0,0,0,3.58,2.34,26.46,26.46,0,0,0,7.32.79q6.92,0,9.87-1.71a5.55,5.55,0,0,0,2.95-5.12,5.25,5.25,0,0,0-2.33-4.66,11.41,11.41,0,0,0-6.49-1.58h-6.91c-3.72,0-6.54-.8-8.45-2.38A7.39,7.39,0,0,1,385,474.7a7.76,7.76,0,0,1,1.25-4.16,12.19,12.19,0,0,1,3.58-3.58,13.92,13.92,0,0,1-5.62-5,13.68,13.68,0,0,1-1.79-7.2,14.52,14.52,0,0,1,2.21-7.91,15,15,0,0,1,6.08-5.45,18.74,18.74,0,0,1,8.61-2,61,61,0,0,0,8.66-.37,30.28,30.28,0,0,0,5.79-1.25q2.29-.8,5.62-2.29Zm-29,5.2a11.92,11.92,0,0,0,0,14.32,8.66,8.66,0,0,0,6.83,2.71c3,0,5.29-.88,6.87-2.62s2.37-4.21,2.37-7.37q0-9.75-9.41-9.74A8.45,8.45,0,0,0,392.57,447.68Z" fill="#5d5b5c"/><path d="M461.14,465h-28q.49,7.24,3.66,10.66a10.61,10.61,0,0,0,8.16,3.41,17.86,17.86,0,0,0,5.83-.91,23.48,23.48,0,0,0,5.58-2.92l3.33,4.58a24.27,24.27,0,0,1-15.32,5.5q-9.16,0-14.28-6T425,462.88a31.3,31.3,0,0,1,2.21-12.12,19,19,0,0,1,6.33-8.28,16,16,0,0,1,9.7-3q8.73,0,13.4,5.75t4.66,15.9C461.3,462.41,461.25,463.71,461.14,465Zm-7.41-6.16q0-6.5-2.59-9.91t-7.74-3.41q-9.4,0-10.24,13.82h20.57Z" fill="#5d5b5c"/><path d="M154.79,584.27l-4.33-14.41H128.73l-4.33,14.41h-8l18.4-57.37h10l18.32,57.37Zm-24.15-20.82h17.9l-8.9-30Z" fill="#5d5b5c"/><path d="M203.74,540.39l-14.9,43.88H179.6l-15.15-43.88h8.32l11.49,37.05,11.41-37.05Z" fill="#5d5b5c"/><path d="M241.63,578a5.61,5.61,0,0,0,2.74,2l-1.74,5.33a11.74,11.74,0,0,1-5.5-1.92,8.76,8.76,0,0,1-3.08-4.66q-4.41,6.57-13.07,6.58-6.49,0-10.24-3.67A12.77,12.77,0,0,1,207,572q0-7,5-10.74t14.28-3.75h6.74v-3.25q0-4.65-2.25-6.66t-6.91-2A38.5,38.5,0,0,0,212.07,548l-1.91-5.58a44.08,44.08,0,0,1,15.15-3q7.74,0,11.57,3.79T240.71,554V574A6.87,6.87,0,0,0,241.63,578Zm-8.58-5.29V562.62h-5.74q-12.17,0-12.16,9,0,3.92,1.92,5.91a7.48,7.48,0,0,0,5.66,2Q229.3,579.52,233.05,572.69Z" fill="#5d5b5c"/><path d="M264.11,520.82a5.12,5.12,0,0,1,1.49,3.75,5,5,0,0,1-1.49,3.71,5.39,5.39,0,0,1-3.92,1.45,5.28,5.28,0,0,1-3.83-1.45,5,5,0,0,1-1.5-3.71,5.09,5.09,0,0,1,1.5-3.75,5.22,5.22,0,0,1,3.83-1.49A5.34,5.34,0,0,1,264.11,520.82Zm0,19.57v43.88h-7.66V540.39Z" fill="#5d5b5c"/><path d="M282,582.73a9.86,9.86,0,0,1-2.45-7.12V522.74l7.66-.92v53.62a4.57,4.57,0,0,0,.62,2.67,2.52,2.52,0,0,0,2.13.83,7.67,7.67,0,0,0,2.83-.5l2,5.33a12.44,12.44,0,0,1-6.07,1.5A8.91,8.91,0,0,1,282,582.73Z" fill="#5d5b5c"/><path d="M334.38,578a5.61,5.61,0,0,0,2.74,2l-1.75,5.33a11.74,11.74,0,0,1-5.49-1.92,8.71,8.71,0,0,1-3.08-4.66q-4.41,6.57-13.07,6.58-6.5,0-10.24-3.67a12.77,12.77,0,0,1-3.75-9.57q0-7,5-10.74t14.28-3.75h6.74v-3.25q0-4.65-2.25-6.66t-6.91-2A38.5,38.5,0,0,0,304.82,548l-1.92-5.58a44.13,44.13,0,0,1,15.16-3q7.74,0,11.57,3.79T333.46,554V574A6.8,6.8,0,0,0,334.38,578Zm-8.58-5.29V562.62h-5.75q-12.15,0-12.15,9,0,3.92,1.91,5.91a7.52,7.52,0,0,0,5.67,2Q322.05,579.52,325.8,572.69Z" fill="#5d5b5c"/><path d="M381.16,545.43q4.43,6,4.42,16.86a32.39,32.39,0,0,1-2.08,12,18,18,0,0,1-6,8.07,15,15,0,0,1-9.16,2.88,14.51,14.51,0,0,1-11.65-5.83l-.75,4.83h-6.75V522.74l7.66-.92v24.06a14.71,14.71,0,0,1,12.41-6.49A14,14,0,0,1,381.16,545.43Zm-6.7,29.64q2.88-4.12,2.87-12.78,0-8.91-2.66-12.87a8.62,8.62,0,0,0-7.58-3.95q-5.82,0-10.24,6.83v21a13.75,13.75,0,0,0,4.29,4.33,10,10,0,0,0,5.37,1.58A9.17,9.17,0,0,0,374.46,575.07Z" fill="#5d5b5c"/><path d="M400.69,582.73a9.83,9.83,0,0,1-2.46-7.12V522.74l7.66-.92v53.62a4.49,4.49,0,0,0,.63,2.67,2.48,2.48,0,0,0,2.12.83,7.63,7.63,0,0,0,2.83-.5l2,5.33a12.48,12.48,0,0,1-6.08,1.5A8.89,8.89,0,0,1,400.69,582.73Z" fill="#5d5b5c"/><path d="M455.6,565h-28q.51,7.24,3.67,10.66a10.63,10.63,0,0,0,8.16,3.41,17.8,17.8,0,0,0,5.82-.91,23.48,23.48,0,0,0,5.58-2.92l3.33,4.58a24.27,24.27,0,0,1-15.32,5.5q-9.15,0-14.28-6t-5.12-16.48a31.3,31.3,0,0,1,2.21-12.12,19,19,0,0,1,6.33-8.28,16,16,0,0,1,9.7-3q8.73,0,13.4,5.75t4.66,15.9C455.76,562.32,455.71,563.62,455.6,565Zm-7.41-6.16q0-6.49-2.58-9.91t-7.75-3.41q-9.41,0-10.24,13.82h20.57Z" fill="#5d5b5c"/></svg>