<svg xmlns="http://www.w3.org/2000/svg" width="1024" height="1024" viewBox="0 0 1024 1024"><title>No Image Available</title><rect width="1024" height="1024" fill="#dcdadb"/><path d="M238.25,531.76H229l-20.44-42.71q.44,5,.69,9.31t.26,10.33v23.07H203v-50.3h9l20.66,42.78c-.14-1.27-.34-3.48-.58-6.64s-.37-6.06-.37-8.69V481.46h6.5Z" fill="#5d5b5c"/><path d="M279.53,497.81q4.5,5.42,4.49,14.68A25.58,25.58,0,0,1,282,523a16.07,16.07,0,0,1-5.92,7.09,16.53,16.53,0,0,1-9.19,2.51q-8.12,0-12.63-5.4t-4.53-14.67a25.46,25.46,0,0,1,2-10.55,16,16,0,0,1,5.91-7.08,16.61,16.61,0,0,1,9.27-2.52Q275,492.41,279.53,497.81Zm-22.59,14.75q0,14.67,9.93,14.67t9.92-14.74q0-14.69-9.85-14.68Q256.93,497.81,256.94,512.56Z" fill="#5d5b5c"/><path d="M321.76,481.46v50.3h-6.93v-50.3Z" fill="#5d5b5c"/><path d="M382.21,495.59q2.84,3.17,2.84,8.57v27.6h-6.71V505.11q0-7.44-5.4-7.44a7.24,7.24,0,0,0-4.82,1.64,22.68,22.68,0,0,0-4.24,5.15v27.3h-6.71V505.11q0-7.44-5.4-7.44a7.31,7.31,0,0,0-4.9,1.68,23.07,23.07,0,0,0-4.16,5.11v27.3H336V493.29h5.76l.59,5.62q4.31-6.5,11.09-6.5a10.09,10.09,0,0,1,6.1,1.83,10,10,0,0,1,3.61,5.11,18.13,18.13,0,0,1,5-5.15,11.58,11.58,0,0,1,6.46-1.79A9.7,9.7,0,0,1,382.21,495.59Z" fill="#5d5b5c"/><path d="M425.28,526.25a4.87,4.87,0,0,0,2.4,1.71l-1.53,4.67a10.34,10.34,0,0,1-4.82-1.67,7.77,7.77,0,0,1-2.7-4.09q-3.87,5.76-11.46,5.76-5.69,0-9-3.21a11.21,11.21,0,0,1-3.28-8.39q0-6.13,4.41-9.42t12.52-3.28h5.92v-2.85c0-2.73-.66-4.67-2-5.84s-3.34-1.75-6.06-1.75a33.94,33.94,0,0,0-10.37,2L397.68,495A38.79,38.79,0,0,1,411,492.41c4.52,0,7.91,1.11,10.14,3.32s3.36,5.37,3.36,9.46v17.59A6,6,0,0,0,425.28,526.25Zm-7.52-4.64v-8.83h-5q-10.67,0-10.66,7.88a7.19,7.19,0,0,0,1.68,5.18,6.55,6.55,0,0,0,5,1.76Q414.48,527.6,417.76,521.61Z" fill="#5d5b5c"/><path d="M468.56,495a20.61,20.61,0,0,1-4.81.95c-1.76.14-3.9.22-6.43.22q6.8,3.06,6.79,9.71a12.23,12.23,0,0,1-3.94,9.41Q456.23,519,449.44,519a15.76,15.76,0,0,1-4.89-.73,4.14,4.14,0,0,0-1.39,1.57,4.35,4.35,0,0,0-.51,2q0,3.13,5,3.14h6.13a16.07,16.07,0,0,1,6.86,1.39,11.11,11.11,0,0,1,4.64,3.79,9.54,9.54,0,0,1,1.64,5.48,9.75,9.75,0,0,1-4.6,8.65q-4.61,3-13.43,3a30.41,30.41,0,0,1-9.82-1.28A9.32,9.32,0,0,1,434,542.2a12.68,12.68,0,0,1-1.53-6.57h6.06a6.75,6.75,0,0,0,.87,3.68,5.53,5.53,0,0,0,3.14,2.05,23.16,23.16,0,0,0,6.43.69q6.06,0,8.65-1.5a4.86,4.86,0,0,0,2.59-4.48,4.61,4.61,0,0,0-2-4.09,10.05,10.05,0,0,0-5.7-1.39h-6.06q-4.89,0-7.41-2.08a6.5,6.5,0,0,1-2.52-5.22,6.81,6.81,0,0,1,1.1-3.65,10.78,10.78,0,0,1,3.14-3.14,12.1,12.1,0,0,1-4.93-4.34,12,12,0,0,1-1.57-6.32,12.7,12.7,0,0,1,1.94-6.93,13,13,0,0,1,5.32-4.78,16.48,16.48,0,0,1,7.56-1.72,52.69,52.69,0,0,0,7.59-.33,26,26,0,0,0,5.08-1.09c1.33-.46,3-1.13,4.92-2Zm-25.44,4.56a10.44,10.44,0,0,0,0,12.56,7.61,7.61,0,0,0,6,2.37,7.73,7.73,0,0,0,6-2.3,9.28,9.28,0,0,0,2.08-6.46q0-8.53-8.25-8.54A7.42,7.42,0,0,0,443.12,499.6Z" fill="#5d5b5c"/><path d="M503.24,514.82H478.71q.44,6.36,3.21,9.35a9.34,9.34,0,0,0,7.16,3,15.78,15.78,0,0,0,5.11-.8,21,21,0,0,0,4.89-2.56l2.92,4a21.28,21.28,0,0,1-13.43,4.81q-8,0-12.52-5.25t-4.49-14.46a27.37,27.37,0,0,1,1.93-10.62A16.64,16.64,0,0,1,479,495a14.07,14.07,0,0,1,8.5-2.63q7.66,0,11.76,5t4.08,13.94C503.38,512.51,503.34,513.65,503.24,514.82Zm-6.5-5.4c0-3.8-.75-6.69-2.26-8.69s-3.77-3-6.79-3q-8.25,0-9,12.12h18Z" fill="#5d5b5c"/><path d="M560.62,531.76l-3.8-12.63H537.77L534,531.76h-7l16.14-50.3h8.76l16.06,50.3Zm-21.17-18.25h15.69l-7.81-26.28Z" fill="#5d5b5c"/><path d="M603.54,493.29l-13.07,38.47h-8.1l-13.29-38.47h7.3l10.08,32.48,10-32.48Z" fill="#5d5b5c"/><path d="M636.75,526.25a5,5,0,0,0,2.41,1.71l-1.53,4.67a10.3,10.3,0,0,1-4.82-1.67,7.77,7.77,0,0,1-2.7-4.09q-3.87,5.76-11.46,5.76-5.7,0-9-3.21a11.21,11.21,0,0,1-3.28-8.39q0-6.13,4.41-9.42t12.52-3.28h5.92v-2.85c0-2.73-.66-4.67-2-5.84s-3.33-1.75-6-1.75a33.94,33.94,0,0,0-10.37,2L609.16,495a38.79,38.79,0,0,1,13.29-2.63q6.78,0,10.14,3.32t3.36,9.46v17.59A6.09,6.09,0,0,0,636.75,526.25Zm-7.51-4.64v-8.83h-5q-10.66,0-10.66,7.88a7.19,7.19,0,0,0,1.68,5.18,6.55,6.55,0,0,0,5,1.76Q626,527.6,629.24,521.61Z" fill="#5d5b5c"/><path d="M656.46,476.13a4.45,4.45,0,0,1,1.32,3.29,4.35,4.35,0,0,1-1.32,3.25,4.71,4.71,0,0,1-3.43,1.27,4.63,4.63,0,0,1-3.36-1.27,4.38,4.38,0,0,1-1.31-3.25,4.49,4.49,0,0,1,1.31-3.29,4.58,4.58,0,0,1,3.36-1.31A4.65,4.65,0,0,1,656.46,476.13Zm0,17.16v38.47h-6.71V493.29Z" fill="#5d5b5c"/><path d="M672.12,530.41a8.65,8.65,0,0,1-2.15-6.24V477.81l6.72-.8v47a4,4,0,0,0,.54,2.34,2.21,2.21,0,0,0,1.86.73,6.7,6.7,0,0,0,2.49-.44l1.75,4.67a10.9,10.9,0,0,1-5.33,1.31A7.82,7.82,0,0,1,672.12,530.41Z" fill="#5d5b5c"/><path d="M718.08,526.25a4.9,4.9,0,0,0,2.41,1.71L719,532.63a10.34,10.34,0,0,1-4.82-1.67,7.77,7.77,0,0,1-2.7-4.09q-3.87,5.76-11.46,5.76-5.69,0-9-3.21a11.21,11.21,0,0,1-3.28-8.39q0-6.13,4.42-9.42t12.52-3.28h5.91v-2.85c0-2.73-.66-4.67-2-5.84s-3.34-1.75-6.06-1.75a34,34,0,0,0-10.37,2L690.48,495a38.79,38.79,0,0,1,13.29-2.63q6.78,0,10.15,3.32t3.35,9.46v17.59A6,6,0,0,0,718.08,526.25Zm-7.52-4.64v-8.83h-5q-10.65,0-10.66,7.88a7.19,7.19,0,0,0,1.68,5.18,6.58,6.58,0,0,0,5,1.76Q707.27,527.6,710.56,521.61Z" fill="#5d5b5c"/><path d="M759.1,497.7Q763,503,763,512.49A28.35,28.35,0,0,1,761.15,523a15.8,15.8,0,0,1-5.26,7.09,13.25,13.25,0,0,1-8,2.51,12.7,12.7,0,0,1-10.22-5.11l-.66,4.24h-5.91V477.81l6.72-.8v21.1a12.85,12.85,0,0,1,10.87-5.7A12.29,12.29,0,0,1,759.1,497.7Zm-5.87,26q2.5-3.62,2.51-11.2,0-7.82-2.33-11.28a7.55,7.55,0,0,0-6.65-3.47c-3.4,0-6.4,2-9,6v18.39a12,12,0,0,0,3.75,3.8,8.83,8.83,0,0,0,4.71,1.38A8,8,0,0,0,753.23,523.69Z" fill="#5d5b5c"/><path d="M776.22,530.41a8.6,8.6,0,0,1-2.15-6.24V477.81l6.71-.8v47a3.92,3.92,0,0,0,.55,2.34,2.2,2.2,0,0,0,1.86.73,6.65,6.65,0,0,0,2.48-.44l1.75,4.67a10.87,10.87,0,0,1-5.32,1.31A7.79,7.79,0,0,1,776.22,530.41Z" fill="#5d5b5c"/><path d="M824.36,514.82H799.84q.43,6.36,3.21,9.35a9.32,9.32,0,0,0,7.15,3,15.78,15.78,0,0,0,5.11-.8,20.62,20.62,0,0,0,4.89-2.56l2.92,4a21.26,21.26,0,0,1-13.43,4.81q-8,0-12.52-5.25t-4.49-14.46a27.37,27.37,0,0,1,1.94-10.62,16.62,16.62,0,0,1,5.54-7.26,14.11,14.11,0,0,1,8.51-2.63q7.67,0,11.75,5t4.09,13.94C824.51,512.51,824.46,513.65,824.36,514.82Zm-6.49-5.4c0-3.8-.76-6.69-2.27-8.69s-3.77-3-6.79-3q-8.25,0-9,12.12h18Z" fill="#5d5b5c"/></svg>