<svg width="20" height="20" xmlns="http://www.w3.org/2000/svg" xmlns:xlink="http://www.w3.org/1999/xlink" viewBox="0 0 24 27.69"><defs><style>.cls-1{fill:none;}.cls-2,.cls-3{fill:#fff;}.cls-2{opacity:0.5;}.cls-4{clip-path:url(#clip-path);}.cls-5{clip-path:url(#clip-path-2);}</style><clipPath id="clip-path"><polygon class="cls-1" points="1.53 19.71 1.56 10.04 9.97 14.9 9.95 24.57 1.53 19.71"/></clipPath><clipPath id="clip-path-2"><polygon class="cls-1" points="3.68 7.1 12.04 2.24 20.46 7.1 12.1 11.96 3.68 7.1"/></clipPath></defs><g id="Pattern_v01" data-name="Pattern v01"><polygon class="cls-1" points="24 6.94 12.06 13.88 0.04 6.94 11.98 0 24 6.94"/><polygon class="cls-1" points="24 6.94 23.96 20.75 12.02 27.69 12.06 13.88 24 6.94"/><polygon class="cls-2" points="12.06 13.88 12.02 27.69 0 20.75 0.04 6.94 12.06 13.88"/><polygon class="cls-1" points="24 6.94 12.06 13.88 0.04 6.94 11.98 0 24 6.94"/><polygon class="cls-1" points="24 6.94 23.96 20.75 12.02 27.69 12.06 13.88 24 6.94"/><polygon class="cls-1" points="24 6.94 12.06 13.88 0.04 6.94 11.98 0 24 6.94"/><polygon class="cls-1" points="12.06 13.88 12.02 27.69 0 20.75 0.04 6.94 12.06 13.88"/><path class="cls-3" d="M24,6.94l0,13.81L12,27.69l0-13.81Zm-5.4,5.49L14.12,15l0,9.67,8.41-4.86v-3.6l-3.94,2.27V12.43"/><g class="cls-4"><polyline class="cls-3" points="9.97 14.9 1.56 10.04 1.55 13.65 3.98 15.05 3.96 21.11 7.46 23.13 7.48 17.07 9.96 18.5 9.97 14.9"/></g><g class="cls-5"><path class="cls-3" d="M9.43,6.66,10.58,6A1.48,1.48,0,0,1,12,6c.35.21.51.55,0,.83l-1.13.66L9.43,6.66m11,.44-3.9-.71c.23-.8-.23-1.64-1.31-2.26a6.49,6.49,0,0,0-3.19-.78,7.05,7.05,0,0,0-3.47.9L3.68,7.1,12.1,12l3.24-1.89-2-1.13.39-.22,2.92.57L20.46,7.1"/></g></g></svg>